<?xml version="1.0" encoding="UTF-8"?>
<svg id="Layer_2" data-name="Layer 2" xmlns="http://www.w3.org/2000/svg" viewBox="0 0 1753.73 344">
  <defs>
    <style>
      .cls-1 {
        fill: #fff;
        stroke-width: 0px;
      }
    </style>
  </defs>
  <g id="Layer_2-2" data-name="Layer 2">
    <path class="cls-1" d="M343.78,46.5C343.11,21.26,322.52.68,297.28.02c-20.67-.54-38.46,12.04-45.67,30.01-24.34-13.97-52.51-22.02-82.55-22.19C76.19,7.31.06,82.94,0,175.8c-.06,92.92,75.28,168.26,168.2,168.2,92.93-.06,168.58-76.29,167.97-169.21-.2-30.07-8.29-58.27-22.32-82.63,17.94-7.23,30.49-25.01,29.94-45.66ZM257.71,44s0,0,0,0c.31-3.12,1-6.14,2.01-9h0s0,0,0,0c.14-.4.29-.79.44-1.18.04-.11.09-.23.14-.34.15-.38.31-.75.48-1.13.04-.1.09-.19.13-.29.55-1.22,1.16-2.4,1.82-3.54.04-.07.09-.15.13-.23.2-.34.41-.68.62-1.01.08-.12.15-.24.23-.36.21-.33.43-.65.65-.97.22-.32.46-.61.62-1,.19-.48.46-.93.88-1.24.54-.4.93-.91,1.35-1.39.23-.26.47-.52.7-.77.14-.14.27-.29.41-.43.24-.25.47-.49.72-.73.13-.12.25-.24.38-.36.45-.43.92-.85,1.39-1.26.17-.15.34-.3.51-.44.23-.19.47-.38.7-.57.2-.16.4-.32.6-.47.23-.18.47-.35.7-.53.22-.16.45-.32.68-.48.22-.16.45-.32.68-.47.34-.22.68-.44,1.02-.65.27-.17.54-.33.82-.49.3-.18.61-.36.92-.53.21-.12.43-.23.64-.34.29-.15.58-.3.88-.45.21-.11.43-.21.65-.31.33-.16.67-.31,1-.45.18-.08.36-.16.54-.24.51-.21,1.02-.41,1.53-.61.16-.06.31-.11.47-.16.39-.14.77-.27,1.16-.39.2-.06.4-.12.6-.18.37-.11.74-.22,1.11-.32.19-.05.39-.1.58-.15.46-.11.91-.22,1.38-.32.11-.02.21-.05.32-.07.57-.12,1.14-.22,1.71-.31.16-.03.32-.05.49-.07.43-.06.85-.12,1.28-.16.2-.02.4-.04.59-.06.42-.04.84-.07,1.27-.1.18-.01.36-.02.54-.03.6-.03,1.2-.05,1.81-.05,21.21,0,38.47,17.26,38.47,38.47h0c0,.6-.02,1.2-.05,1.8,0,.19-.02.37-.03.56-.03.42-.06.84-.1,1.25-.02.2-.04.4-.06.61-.05.43-.1.85-.16,1.27-.02.17-.04.33-.07.5-.09.57-.19,1.14-.31,1.71-.02.12-.05.23-.08.35-.1.45-.2.9-.31,1.34-.05.2-.1.4-.16.59-.1.37-.2.73-.31,1.1-.06.2-.12.41-.19.61-.12.39-.26.78-.4,1.17-.06.15-.11.31-.16.46-.19.51-.39,1.02-.6,1.53-.08.19-.16.37-.24.55-.15.33-.29.66-.45.99-.1.22-.21.43-.32.65-.15.29-.3.59-.45.88-.11.21-.23.43-.34.64-.18.32-.36.63-.54.94-.17.28-.34.57-.51.85-.2.32-.41.65-.62.96-.15.23-.31.45-.46.67-.16.23-.32.46-.48.68-.17.23-.34.46-.52.69-.16.21-.32.41-.48.61-.18.23-.37.46-.56.69-.17.2-.35.4-.52.6-.36.42-.73.82-1.11,1.22-.15.15-.29.31-.44.46-.23.24-.47.47-.71.7-.15.14-.3.29-.45.43-.25.23-.5.46-.75.69-.13.12-.27.23-.4.35-.91.78-1.84,1.53-2.82,2.22-.14.1-.28.2-.42.3-.31.21-.62.42-.94.63-.13.08-.26.17-.39.25-.33.21-.65.41-.99.61-.08.05-.16.09-.24.14-1.13.66-2.29,1.26-3.48,1.8-.12.05-.24.11-.36.16-.36.16-.72.31-1.09.46-.13.05-.25.1-.38.15-3.2,1.26-6.6,2.1-10.15,2.46h0s-.05,0-.07,0c-1.25.12-2.52.19-3.8.19s-2.64-.07-3.93-.2c-1.44-.15-2.86-.38-4.25-.68-2.1-.46-4.14-1.09-6.1-1.87-.49-.2-.98-.4-1.46-.62-2.02-.91-3.95-1.97-5.76-3.2-10.23-6.92-16.98-18.63-16.98-31.89,0-.65.02-1.29.05-1.92.03-.52.07-1.04.12-1.56,0-.11.01-.22.02-.33ZM152.74,140.37c.32-.13.64-.25.96-.38.28-.11.55-.22.83-.33.39-.14.79-.27,1.18-.4.22-.07.43-.15.65-.22.51-.16,1.03-.3,1.55-.44.11-.03.21-.06.32-.09.59-.15,1.19-.29,1.79-.41.04,0,.07-.02.11-.03,2.56-.53,5.22-.8,7.93-.8,21.73,0,39.41,17.68,39.41,39.41h0c0,.67-.02,1.33-.05,1.98-.02.34-.05.67-.07,1.01-.02.31-.04.62-.07.93-.05.46-.11.91-.17,1.36-.02.18-.04.36-.07.54-.08.53-.17,1.05-.27,1.57-.02.1-.03.2-.05.29-.11.57-.24,1.14-.38,1.7-.01.04-.02.08-.03.13-.15.59-.31,1.18-.49,1.77,0,0,0,.02,0,.02-2.51,8.39-7.75,15.61-14.68,20.63-.05.04-.1.07-.15.11-.52.37-1.04.73-1.58,1.08-.09.06-.18.11-.26.17-.51.32-1.03.64-1.56.94-.1.06-.19.11-.29.17-.55.31-1.11.61-1.68.89-.07.03-.13.07-.2.1-1.29.63-2.62,1.2-3.98,1.7-.06.02-.13.04-.19.07-.59.21-1.18.41-1.78.59-.19.06-.39.11-.59.17-.48.14-.96.27-1.44.38-.24.06-.48.11-.73.17-.45.1-.9.19-1.35.28-.26.05-.52.1-.78.14-.45.08-.9.14-1.36.2-.26.03-.52.07-.79.1-.49.05-.98.09-1.48.13-.23.02-.46.04-.69.05-.73.04-1.45.06-2.19.06-.68,0-1.35-.02-2.03-.05-2.68-.14-5.3-.54-7.81-1.19-.84-.22-1.67-.47-2.49-.74-.67-.22-1.33-.46-1.99-.72-.71-.28-1.41-.58-2.1-.89-1.01-.47-2-.97-2.96-1.52-.86-.49-1.7-1-2.52-1.55-.04-.03-.08-.05-.12-.08-10.49-7.09-17.39-19.09-17.39-32.67,0-.04,0-.07,0-.11,0-.69.02-1.37.06-2.05.01-.25.04-.49.06-.74.03-.47.07-.94.12-1.4.03-.28.07-.56.11-.83.06-.43.11-.85.18-1.28.05-.29.1-.57.15-.85.08-.41.16-.83.25-1.24.06-.28.12-.55.19-.83.1-.41.21-.83.32-1.24.07-.26.14-.52.22-.78.13-.44.27-.87.42-1.3.08-.22.15-.45.23-.67.19-.52.39-1.03.59-1.54.05-.13.1-.25.15-.38.27-.65.56-1.29.87-1.92.02-.03.04-.07.05-.1.28-.58.58-1.16.9-1.72.08-.15.17-.3.26-.45.25-.45.51-.89.78-1.32.11-.18.22-.35.33-.52.26-.41.53-.81.8-1.2.12-.17.25-.35.37-.52.28-.39.57-.78.87-1.16.13-.16.25-.32.38-.48.32-.39.64-.78.97-1.16.12-.13.23-.27.35-.4.38-.43.77-.84,1.17-1.26.07-.08.15-.16.22-.23.99-1,2.02-1.95,3.11-2.84,0,0,0,0,0,0h0c2.89-2.36,6.11-4.33,9.6-5.8h0ZM192.43,114.59c-1.53-23.92,18.27-43.72,42.19-42.19,19.77,1.26,35.74,17.23,37,37,1.53,23.92-18.27,43.72-42.19,42.19-19.77-1.26-35.74-17.23-37-37ZM8.62,175.92c0-21.53,4.21-42.41,12.53-62.07,8.03-18.99,19.53-36.04,34.18-50.69,14.65-14.65,31.7-26.15,50.69-34.18,19.65-8.31,40.54-12.53,62.07-12.53s42.41,4.21,62.07,12.53c6.55,2.77,12.87,5.96,18.94,9.55-.59,3-.91,6.1-.91,9.28,0,7.13,1.57,13.88,4.37,19.96-6.24-2.9-13.19-4.53-20.52-4.53s-14.35,1.64-20.62,4.57c-19.08-9.79-40.7-15.32-63.62-15.32C74.51,52.5,14.42,109,8.71,180.82c-.05-1.63-.08-3.26-.08-4.9ZM16.88,192.04c0-34.97,13.62-67.84,38.34-92.57,24.73-24.73,57.6-38.34,92.57-38.34,19.25,0,37.87,4.14,54.85,11.98-11.76,8.9-19.36,23.01-19.36,38.9,0,7.13,1.54,13.89,4.29,19.99-5.97-2.61-12.56-4.07-19.5-4.07-10.27,0-19.8,3.18-27.66,8.61-7.41-1.74-15.17-2.59-23.16-2.41-48.67,1.06-88.38,40.33-89.95,88.98-.3,9.39.81,18.47,3.12,27.06-8.86-17.84-13.54-37.62-13.54-58.12ZM35.88,225.31c.21-21.5,8.79-42.22,23.85-57.57,15.82-16.13,37.01-25.02,59.57-25.02,4.35,0,8.64.33,12.86.98-8.2,8.92-13.12,20.91-12.84,34.05.55,25.5,21.03,46.49,46.51,47.63,13.85.62,26.48-4.55,35.71-13.28.77,4.6,1.17,9.29,1.17,14.04,0,22.56-8.89,43.75-25.03,59.57-15.35,15.06-36.07,23.64-57.57,23.84-22.59.22-43.86-8.48-59.81-24.43-15.95-15.95-24.65-37.22-24.43-59.82ZM119.3,318.19c50.84,0,92.05-41.21,92.05-92.05,0-7.72-.95-15.21-2.74-22.37,5.19-7.75,8.22-17.07,8.22-27.09,0-7.13-1.54-13.89-4.29-19.99,5.97,2.61,12.56,4.07,19.5,4.07,14.99,0,28.4-6.77,37.34-17.42,6.12,15.28,9.33,31.75,9.33,48.71,0,34.97-13.62,67.84-38.34,92.57-24.73,24.73-57.6,38.34-92.57,38.34-12.48,0-24.69-1.74-36.35-5.1,2.59.22,5.21.34,7.86.34ZM315.01,113.85c8.31,19.65,12.53,40.54,12.53,62.07s-4.21,42.41-12.53,62.07c-8.03,18.99-19.53,36.04-34.18,50.69-14.65,14.65-31.7,26.15-50.69,34.18-19.65,8.31-40.54,12.53-62.07,12.53-14.03,0-27.79-1.8-41.11-5.35,8.04,1.2,16.29,1.73,24.72,1.49,76.12-2.1,136.82-65.58,135.62-141.72-.31-19.56-4.64-38.14-12.21-54.95,3.62-6.82,5.68-14.59,5.68-22.84,0-7.39-1.65-14.4-4.6-20.67,6.04,2.75,12.74,4.3,19.81,4.3,3.2,0,6.33-.32,9.35-.92,3.63,6.14,6.87,12.52,9.67,19.15Z"/>
    <g>
      <path class="cls-1" d="M511.22,186.68c0-3.81.19-7.14.58-10,.39-2.86,1.07-5.51,2.04-7.94s2.25-4.42,3.85-5.96c1.59-1.54,3.63-2.74,6.1-3.59s5.39-1.28,8.76-1.28,6.29.42,8.76,1.26c2.47.84,4.51,2.03,6.1,3.57,1.59,1.54,2.87,3.52,3.85,5.94.97,2.42,1.65,5.07,2.04,7.94.39,2.87.58,6.23.58,10.06s-.19,7.47-.58,10.37-1.06,5.53-2,7.89c-.95,2.36-2.23,4.25-3.85,5.67s-3.65,2.51-6.1,3.26-5.38,1.13-8.8,1.13-6.33-.4-8.8-1.2c-2.47-.8-4.51-1.94-6.12-3.42-1.61-1.48-2.89-3.41-3.85-5.79s-1.63-5-2-7.85c-.38-2.85-.56-6.2-.56-10.06ZM514.25,186.68c0,3.57.14,6.62.43,9.13s.82,4.87,1.59,7.07,1.85,3.96,3.2,5.26c1.36,1.31,3.12,2.33,5.28,3.07s4.76,1.11,7.79,1.11c2.56,0,4.8-.22,6.7-.66,1.9-.44,3.53-1.15,4.88-2.12s2.45-2.12,3.32-3.44,1.55-2.99,2.06-5.01.85-4.16,1.05-6.41c.19-2.25.29-4.92.29-8,0-3.47-.16-6.49-.47-9.07-.31-2.58-.87-4.97-1.67-7.19s-1.88-4.01-3.24-5.4c-1.36-1.38-3.11-2.47-5.26-3.24s-4.7-1.17-7.65-1.17-5.54.38-7.69,1.15c-2.15.76-3.9,1.83-5.26,3.2s-2.44,3.17-3.24,5.4-1.35,4.62-1.65,7.19-.45,5.61-.45,9.13Z"/>
      <path class="cls-1" d="M668.67,214.3v-55.71h19.97c5.59,0,9.75,1.28,12.47,3.83,2.72,2.55,4.08,6.58,4.08,12.1,0,9.4-3.85,14.84-11.54,16.32l12.59,23.46h-3.26l-12.39-23.07h-19.03v23.07h-2.87ZM671.54,188.51h17.09c9.04,0,13.56-4.66,13.56-13.98,0-4.61-1.09-7.96-3.26-10.06-2.18-2.1-5.61-3.15-10.29-3.15h-17.09v27.19Z"/>
      <path class="cls-1" d="M819.78,214.3v-55.71h2.87v55.71h-2.87Z"/>
      <path class="cls-1" d="M937.49,186.68c0-3.81.19-7.14.58-10,.39-2.86,1.07-5.51,2.04-7.94s2.25-4.42,3.85-5.96c1.59-1.54,3.63-2.74,6.1-3.59s5.39-1.28,8.76-1.28,6.29.42,8.76,1.26c2.47.84,4.51,2.03,6.1,3.57,1.59,1.54,2.87,3.52,3.85,5.94.97,2.42,1.65,5.07,2.04,7.94.39,2.87.58,6.23.58,10.06s-.19,7.47-.58,10.37c-.39,2.9-1.06,5.53-2,7.89-.95,2.36-2.23,4.25-3.85,5.67-1.62,1.42-3.65,2.51-6.1,3.26s-5.38,1.13-8.8,1.13-6.33-.4-8.8-1.2c-2.47-.8-4.51-1.94-6.12-3.42-1.61-1.48-2.89-3.41-3.85-5.79s-1.63-5-2-7.85c-.38-2.85-.56-6.2-.56-10.06ZM940.52,186.68c0,3.57.14,6.62.43,9.13s.82,4.87,1.59,7.07c.78,2.2,1.85,3.96,3.2,5.26,1.36,1.31,3.12,2.33,5.28,3.07s4.76,1.11,7.79,1.11c2.56,0,4.8-.22,6.7-.66,1.9-.44,3.53-1.15,4.88-2.12s2.45-2.12,3.32-3.44c.87-1.32,1.55-2.99,2.06-5.01s.85-4.16,1.05-6.41c.19-2.25.29-4.92.29-8,0-3.47-.16-6.49-.47-9.07-.31-2.58-.87-4.97-1.67-7.19s-1.88-4.01-3.24-5.4c-1.36-1.38-3.11-2.47-5.26-3.24s-4.7-1.17-7.65-1.17-5.54.38-7.69,1.15c-2.15.76-3.9,1.83-5.26,3.2s-2.44,3.17-3.24,5.4-1.35,4.62-1.65,7.19c-.3,2.56-.45,5.61-.45,9.13Z"/>
      <path class="cls-1" d="M1094.93,214.3v-55.71h6.76l26.49,52.99h2.18v-52.99h2.87v55.71h-6.8l-26.57-52.99h-2.06v52.99h-2.87Z"/>
      <path class="cls-1" d="M1245.89,158.59h2.87l11.11,52.99h3.11l12.16-52.17h3.48s12.16,52.17,12.16,52.17h3.16l11.15-52.99h2.84l-11.72,55.71h-7.59l-11.72-51.14-11.76,51.14h-7.53l-11.72-55.71Z"/>
      <path class="cls-1" d="M1415.53,214.3l17.12-55.71h8.45l17.08,55.71h-2.87l-5.22-17.09h-26.45l-5.23,17.09h-2.87ZM1424.47,194.49h24.79l-10.13-33.17h-4.5l-10.16,33.17Z"/>
      <path class="cls-1" d="M1570.06,214.3v-55.71h19.97c5.59,0,9.75,1.28,12.47,3.83,2.72,2.55,4.08,6.58,4.08,12.1,0,9.4-3.85,14.84-11.54,16.32l12.59,23.46h-3.26l-12.39-23.07h-19.03v23.07h-2.87ZM1572.94,188.51h17.09c9.04,0,13.56-4.66,13.56-13.98,0-4.61-1.09-7.96-3.26-10.06-2.18-2.1-5.61-3.15-10.29-3.15h-17.09v27.19Z"/>
      <path class="cls-1" d="M1721.17,214.3v-55.71h32.55v2.72h-29.68v23.15h24.9v2.72h-24.9v24.4h29.68v2.72h-32.55Z"/>
    </g>
  </g>
</svg>